<svg width="50" height="50" viewBox="0 0 50 50" fill="none" xmlns="http://www.w3.org/2000/svg">
<path d="M15.625 28.125H10.1562C9.72461 28.125 9.375 27.7754 9.375 27.3438V25.7812C9.375 25.3496 9.72461 25 10.1562 25H15.625V18.75H10.1562C9.72461 18.75 9.375 18.4004 9.375 17.9688V16.4062C9.375 15.9746 9.72461 15.625 10.1562 15.625H15.625V9.375H10.1562C9.72461 9.375 9.375 9.02539 9.375 8.59375V7.03125C9.375 6.59961 9.72461 6.25 10.1562 6.25H15.625V3.125C15.625 1.39941 14.2256 0 12.5 0H3.125C1.39941 0 0 1.39941 0 3.125V46.875C0 47.1455 0.0888672 47.3867 0.15332 47.6367L15.625 32.166V28.125ZM46.875 34.375H43.75V39.8438C43.75 40.2754 43.4004 40.625 42.9688 40.625H41.4062C40.9746 40.625 40.625 40.2754 40.625 39.8438V34.375H34.375V39.8438C34.375 40.2754 34.0254 40.625 33.5938 40.625H32.0312C31.5996 40.625 31.25 40.2754 31.25 39.8438V34.375H25V39.8438C25 40.2754 24.6504 40.625 24.2188 40.625H22.6562C22.2246 40.625 21.875 40.2754 21.875 39.8438V34.375H17.835L2.36328 49.8467C2.61328 49.9111 2.85547 50 3.125 50H46.875C48.6006 50 50 48.6006 50 46.875V37.5C50 35.7744 48.6006 34.375 46.875 34.375Z" fill="black"/>
</svg>
