<svg width="53" height="40" viewBox="0 0 53 40" fill="none" xmlns="http://www.w3.org/2000/svg">
<path d="M35.9189 32.2852C34.9979 30.1034 33.6612 28.1216 31.9834 26.4502C30.3107 24.774 28.3292 23.4375 26.1484 22.5146C26.1289 22.5049 26.1094 22.5 26.0898 22.4902C29.1318 20.293 31.1094 16.7139 31.1094 12.6758C31.1094 5.98633 25.6895 0.566406 19 0.566406C12.3105 0.566406 6.89062 5.98633 6.89062 12.6758C6.89062 16.7139 8.86816 20.293 11.9102 22.4951C11.8906 22.5049 11.8711 22.5098 11.8516 22.5195C9.66406 23.4424 7.70117 24.7656 6.0166 26.4551C4.34038 28.1278 3.00393 30.1092 2.08105 32.29C1.17442 34.4251 0.685459 36.7141 0.640625 39.0332C0.639322 39.0853 0.648463 39.1372 0.667509 39.1857C0.686555 39.2342 0.715122 39.2784 0.751525 39.3158C0.787929 39.3531 0.831433 39.3827 0.879474 39.403C0.927514 39.4232 0.97912 39.4336 1.03125 39.4336H3.96094C4.17578 39.4336 4.34668 39.2627 4.35156 39.0527C4.44922 35.2832 5.96289 31.7529 8.63867 29.0772C11.4072 26.3086 15.084 24.7852 19 24.7852C22.916 24.7852 26.5928 26.3086 29.3613 29.0772C32.0371 31.7529 33.5508 35.2832 33.6484 39.0527C33.6533 39.2676 33.8242 39.4336 34.0391 39.4336H36.9688C37.0209 39.4336 37.0725 39.4232 37.1205 39.403C37.1686 39.3827 37.2121 39.3531 37.2485 39.3158C37.2849 39.2784 37.3134 39.2342 37.3325 39.1857C37.3515 39.1372 37.3607 39.0853 37.3594 39.0332C37.3105 36.6992 36.8271 34.4287 35.9189 32.2852ZM19 21.0742C16.7588 21.0742 14.6494 20.2002 13.0625 18.6133C11.4756 17.0264 10.6016 14.917 10.6016 12.6758C10.6016 10.4346 11.4756 8.32519 13.0625 6.73828C14.6494 5.15137 16.7588 4.27734 19 4.27734C21.2412 4.27734 23.3506 5.15137 24.9375 6.73828C26.5244 8.32519 27.3984 10.4346 27.3984 12.6758C27.3984 14.917 26.5244 17.0264 24.9375 18.6133C23.3506 20.2002 21.2412 21.0742 19 21.0742Z" fill="black"/>
<path d="M52.5 13.5979V3.125C52.5 2.08945 51.6605 1.25 50.625 1.25H36.875C35.8395 1.25 35 2.08945 35 3.125V16.8745C35 17.9101 35.8395 18.7495 36.875 18.7495H47.3484C47.8456 18.7495 48.3226 18.552 48.6742 18.2004L51.9508 14.9237C52.3025 14.5721 52.5 14.0952 52.5 13.5979ZM47.5 16.7229V13.7495H50.4734L47.5 16.7229ZM50.625 3.125V11.8745H46.5625C46.0447 11.8745 45.625 12.2943 45.625 12.812V16.8745H36.875V3.125H50.625Z" fill="black"/>
</svg>
