<svg width="48" height="30" viewBox="0 0 48 30" fill="none" xmlns="http://www.w3.org/2000/svg">
<path d="M24 0.228516C25.8565 0.228516 27.637 0.981378 28.9497 2.32148C30.2625 3.66159 31 5.47916 31 7.37435C31 9.26954 30.2625 11.0871 28.9497 12.4272C27.637 13.7673 25.8565 14.5202 24 14.5202C22.1435 14.5202 20.363 13.7673 19.0503 12.4272C17.7375 11.0871 17 9.26954 17 7.37435C17 5.47916 17.7375 3.66159 19.0503 2.32148C20.363 0.981378 22.1435 0.228516 24 0.228516V0.228516ZM10 5.33268C11.12 5.33268 12.16 5.63893 13.06 6.19018C12.76 9.10976 13.6 12.0089 15.32 14.2752C14.32 16.2352 12.32 17.5827 10 17.5827C8.4087 17.5827 6.88258 16.9374 5.75736 15.7887C4.63214 14.6401 4 13.0821 4 11.4577C4 9.83323 4.63214 8.27531 5.75736 7.12665C6.88258 5.97799 8.4087 5.33268 10 5.33268V5.33268ZM38 5.33268C39.5913 5.33268 41.1174 5.97799 42.2426 7.12665C43.3679 8.27531 44 9.83323 44 11.4577C44 13.0821 43.3679 14.6401 42.2426 15.7887C41.1174 16.9374 39.5913 17.5827 38 17.5827C35.68 17.5827 33.68 16.2352 32.68 14.2752C34.4237 11.9771 35.2331 9.08158 34.94 6.19018C35.84 5.63893 36.88 5.33268 38 5.33268V5.33268ZM11 26.2598C11 22.0335 16.82 18.6035 24 18.6035C31.18 18.6035 37 22.0335 37 26.2598V29.8327H11V26.2598ZM0 29.8327V26.7702C0 23.9323 3.78 21.5435 8.9 20.8493C7.72 22.2377 7 24.1568 7 26.2598V29.8327H0ZM48 29.8327H41V26.2598C41 24.1568 40.28 22.2377 39.1 20.8493C44.22 21.5435 48 23.9323 48 26.7702V29.8327Z" fill="black"/>
</svg>
