<svg width="33" height="43" viewBox="0 0 33 43" fill="none" xmlns="http://www.w3.org/2000/svg">
<path d="M31.25 33.9844H30.0781V17.3828C30.0781 10.4932 24.9854 4.79492 18.3594 3.84766V1.95312C18.3594 0.874023 17.4854 0 16.4062 0C15.3271 0 14.4531 0.874023 14.4531 1.95312V3.84766C7.82715 4.79492 2.73438 10.4932 2.73438 17.3828V33.9844H1.5625C0.698242 33.9844 0 34.6826 0 35.5469V37.1094C0 37.3242 0.175781 37.5 0.390625 37.5H10.9375C10.9375 40.5176 13.3887 42.9688 16.4062 42.9688C19.4238 42.9688 21.875 40.5176 21.875 37.5H32.4219C32.6367 37.5 32.8125 37.3242 32.8125 37.1094V35.5469C32.8125 34.6826 32.1143 33.9844 31.25 33.9844ZM16.4062 39.8438C15.1123 39.8438 14.0625 38.7939 14.0625 37.5H18.75C18.75 38.7939 17.7002 39.8438 16.4062 39.8438Z" fill="black"/>
</svg>
