<svg width="49" height="51" viewBox="0 0 49 51" fill="none" xmlns="http://www.w3.org/2000/svg">
<path d="M31.25 33.9844H30.0781V17.3828C30.0781 10.4932 24.9854 4.7998 18.3594 3.85254V1.95312C18.3594 0.874023 17.4854 0 16.4062 0C15.3271 0 14.4531 0.874023 14.4531 1.95312V3.85254C7.82715 4.7998 2.73438 10.4932 2.73438 17.3828V33.9844H1.5625C0.698242 33.9844 0 34.6826 0 35.5469V37.1094C0 37.3242 0.175781 37.5 0.390625 37.5H10.9375C10.9375 40.5176 13.3887 42.9688 16.4062 42.9688C19.4238 42.9688 21.875 40.5176 21.875 37.5H32.4219C32.6367 37.5 32.8125 37.3242 32.8125 37.1094V35.5469C32.8125 34.6826 32.1143 33.9844 31.25 33.9844ZM16.4062 39.8438C15.1123 39.8438 14.0625 38.7939 14.0625 37.5H18.75C18.75 38.7939 17.7002 39.8438 16.4062 39.8438ZM26.5625 33.9844H6.25V17.3828C6.25 14.668 7.30469 12.1191 9.22363 10.2002C11.1426 8.28125 13.6914 7.22656 16.4062 7.22656C19.1211 7.22656 21.6699 8.28125 23.5889 10.2002C25.5078 12.1191 26.5625 14.668 26.5625 17.3828V33.9844Z" fill="black"/>
<path d="M47.25 41.9844H46.0781V25.3828C46.0781 18.4932 40.9854 12.7949 34.3594 11.8477V9.95312C34.3594 8.87402 33.4854 8 32.4062 8C31.3271 8 30.4531 8.87402 30.4531 9.95312V11.8477C23.8271 12.7949 18.7344 18.4932 18.7344 25.3828V41.9844H17.5625C16.6982 41.9844 16 42.6826 16 43.5469V45.1094C16 45.3242 16.1758 45.5 16.3906 45.5H26.9375C26.9375 48.5176 29.3887 50.9688 32.4062 50.9688C35.4238 50.9688 37.875 48.5176 37.875 45.5H48.4219C48.6367 45.5 48.8125 45.3242 48.8125 45.1094V43.5469C48.8125 42.6826 48.1143 41.9844 47.25 41.9844ZM32.4062 47.8438C31.1123 47.8438 30.0625 46.7939 30.0625 45.5H34.75C34.75 46.7939 33.7002 47.8438 32.4062 47.8438Z" fill="black"/>
</svg>
