<svg width="40" height="45" viewBox="0 0 40 45" fill="none" xmlns="http://www.w3.org/2000/svg">
<path d="M32.5 7H40V44.5H0V7H7.5V4.5C7.5 3.475 7.875 2.6 8.6 1.85C9.325 1.125 10.225 0.75 11.25 0.75C12.275 0.75 13.175 1.125 13.9 1.85C14.625 2.6 15 3.475 15 4.5V7H25V4.5C25 3.475 25.375 2.6 26.1 1.85C26.825 1.125 27.725 0.75 28.75 0.75C29.775 0.75 30.675 1.125 31.4 1.85C32.125 2.6 32.5 3.475 32.5 4.5V7ZM10 4.5V10.75C9.99695 10.915 10.0272 11.0789 10.0889 11.2319C10.1507 11.385 10.2426 11.524 10.3593 11.6407C10.476 11.7574 10.615 11.8493 10.7681 11.9111C10.9211 11.9728 11.085 12.0031 11.25 12C11.415 12.0031 11.5789 11.9728 11.7319 11.9111C11.885 11.8493 12.024 11.7574 12.1407 11.6407C12.2574 11.524 12.3493 11.385 12.4111 11.2319C12.4728 11.0789 12.5031 10.915 12.5 10.75V4.5C12.5 4.15 12.375 3.85 12.125 3.625C11.9 3.375 11.6 3.25 11.25 3.25C10.9 3.25 10.6 3.375 10.375 3.625C10.125 3.85 10 4.15 10 4.5ZM27.5 4.5V10.75C27.5 11.1 27.625 11.4 27.85 11.65C28.1 11.875 28.4 12 28.75 12C29.1 12 29.4 11.875 29.65 11.65C29.875 11.4 30 11.1 30 10.75V4.5C30.0031 4.33501 29.9728 4.17109 29.9111 4.01806C29.8493 3.86502 29.7574 3.726 29.6407 3.60932C29.524 3.49263 29.385 3.40067 29.2319 3.33893C29.0789 3.27719 28.915 3.24695 28.75 3.25C28.585 3.24695 28.4211 3.27719 28.2681 3.33893C28.115 3.40067 27.976 3.49263 27.8593 3.60932C27.7426 3.726 27.6507 3.86502 27.5889 4.01806C27.5272 4.17109 27.4969 4.33501 27.5 4.5ZM37.5 42V17H2.5V42H37.5ZM12.5 19.5V24.5H7.5V19.5H12.5ZM17.5 19.5H22.5V24.5H17.5V19.5ZM27.5 24.5V19.5H32.5V24.5H27.5ZM12.5 27V32H7.5V27H12.5ZM17.5 27H22.5V32H17.5V27ZM27.5 32V27H32.5V32H27.5ZM12.5 34.5V39.5H7.5V34.5H12.5ZM22.5 39.5H17.5V34.5H22.5V39.5ZM32.5 39.5H27.5V34.5H32.5V39.5Z" fill="black"/>
</svg>
