<svg width="16" height="16" viewBox="0 0 16 16" fill="none" xmlns="http://www.w3.org/2000/svg">
<path d="M8 0C3.58125 0 0 3.17386 0 7.09091C0 8.78182 0.66875 10.3295 1.78125 11.5466C1.39062 13.2648 0.084375 14.7955 0.06875 14.8125C0 14.8909 -0.01875 15.0068 0.021875 15.1091C0.0625 15.2114 0.15 15.2727 0.25 15.2727C2.32188 15.2727 3.875 14.1886 4.64375 13.5205C5.66563 13.9398 6.8 14.1818 8 14.1818C12.4187 14.1818 16 11.008 16 7.09091C16 3.17386 12.4187 0 8 0ZM4 8.18182C3.44688 8.18182 3 7.69432 3 7.09091C3 6.4875 3.44688 6 4 6C4.55312 6 5 6.4875 5 7.09091C5 7.69432 4.55312 8.18182 4 8.18182ZM8 8.18182C7.44688 8.18182 7 7.69432 7 7.09091C7 6.4875 7.44688 6 8 6C8.55313 6 9 6.4875 9 7.09091C9 7.69432 8.55313 8.18182 8 8.18182ZM12 8.18182C11.4469 8.18182 11 7.69432 11 7.09091C11 6.4875 11.4469 6 12 6C12.5531 6 13 6.4875 13 7.09091C13 7.69432 12.5531 8.18182 12 8.18182Z" fill="#050039"/>
</svg>
