<svg width="18" height="15" viewBox="0 0 18 15" fill="none" xmlns="http://www.w3.org/2000/svg">
<path d="M1.79916 7.03257C1.79916 8.48615 2.40103 9.81664 3.40228 10.8629C3.04791 12.337 1.8751 13.6528 1.86104 13.6704C1.79916 13.7378 1.78229 13.8374 1.81885 13.9253C1.85541 14.0103 1.93416 14.066 2.02416 14.066C3.88884 14.066 5.28664 13.1341 5.97852 12.5597C6.8982 12.9201 7.91913 13.1282 8.99913 13.1282C9.76975 13.1282 10.5094 13.0227 11.2041 12.8352L2.04947 5.46177C1.89197 5.9629 1.79916 6.48748 1.79916 7.03257ZM17.8247 13.4242L14.6072 10.8336C15.5972 9.79026 16.1991 8.47442 16.1991 7.03257C16.1991 3.66531 12.976 0.936928 8.99913 0.936928C7.1682 0.936928 5.50602 1.52598 4.23478 2.48135L1.27885 0.0987773C1.08198 -0.059475 0.80073 -0.0243078 0.646043 0.180834L0.0947963 0.919344C-0.0570779 1.12449 -0.0233281 1.41755 0.173546 1.5758L16.7222 14.9012C16.9191 15.0595 17.2003 15.0243 17.355 14.8192L17.9063 14.0777C18.0581 13.8784 18.0216 13.5825 17.8247 13.4242Z" fill="#C4C4C4"/>
</svg>
