<svg width="38" height="50" viewBox="0 0 38 50" fill="none" xmlns="http://www.w3.org/2000/svg">
<path d="M21.875 13.2812V0H2.34375C1.04492 0 0 1.04492 0 2.34375V47.6562C0 48.9551 1.04492 50 2.34375 50H35.1562C36.4551 50 37.5 48.9551 37.5 47.6562V15.625H24.2188C22.9297 15.625 21.875 14.5703 21.875 13.2812ZM6.25 7.03125C6.25 6.59961 6.59961 6.25 7.03125 6.25H14.8438C15.2754 6.25 15.625 6.59961 15.625 7.03125V8.59375C15.625 9.02539 15.2754 9.375 14.8438 9.375H7.03125C6.59961 9.375 6.25 9.02539 6.25 8.59375V7.03125ZM6.25 13.2812C6.25 12.8496 6.59961 12.5 7.03125 12.5H14.8438C15.2754 12.5 15.625 12.8496 15.625 13.2812V14.8438C15.625 15.2754 15.2754 15.625 14.8438 15.625H7.03125C6.59961 15.625 6.25 15.2754 6.25 14.8438V13.2812ZM25.0791 37.5H29.6875C30.5508 37.5 31.25 38.1992 31.25 39.0625C31.25 39.9258 30.5508 40.625 29.6875 40.625H25.0791C23.4727 40.625 22.0254 39.7324 21.3057 38.2949C21.0176 37.7168 20.5156 37.6582 20.3125 37.6582C20.1094 37.6582 19.6074 37.7158 19.334 38.2627L18.585 39.7607C18.4553 40.0203 18.2558 40.2386 18.009 40.391C17.7621 40.5435 17.4776 40.6242 17.1875 40.624C17.1504 40.624 17.1143 40.6221 17.0762 40.6191C16.4463 40.5752 15.9043 40.1553 15.7061 39.5557L14.0625 34.6279L13.0264 37.7412C12.4512 39.4658 10.8408 40.625 9.02246 40.625H7.8125C6.94922 40.625 6.25 39.9258 6.25 39.0625C6.25 38.1992 6.94922 37.5 7.8125 37.5H9.02246C9.49414 37.5 9.91211 37.1992 10.0615 36.752L11.8379 31.416C12.1602 30.458 13.0527 29.8135 14.0625 29.8135C15.0723 29.8135 15.9648 30.457 16.2861 31.416L17.6416 35.4824C19.5723 33.9014 22.9199 34.5352 24.0869 36.8652C24.2842 37.2617 24.6689 37.5 25.0791 37.5ZM36.8164 10.2539L27.2559 0.683594C26.8164 0.244141 26.2207 0 25.5957 0H25V12.5H37.5V11.9043C37.5 11.2891 37.2559 10.6934 36.8164 10.2539Z" fill="black"/>
</svg>
