<svg width="42" height="42" viewBox="0 0 42 42" fill="none" xmlns="http://www.w3.org/2000/svg">
<path d="M36.4792 23.042C36.5625 22.3753 36.625 21.7087 36.625 21.0003C36.625 20.292 36.5625 19.6253 36.4792 18.9587L40.875 15.5212C41.2709 15.2087 41.375 14.6462 41.125 14.1878L36.9584 6.97949C36.7084 6.52116 36.1459 6.35449 35.6875 6.52116L30.5 8.60449C29.4167 7.77116 28.25 7.08366 26.9792 6.56283L26.1875 1.04199C26.125 0.541992 25.6875 0.166992 25.1667 0.166992H16.8334C16.3125 0.166992 15.875 0.541992 15.8125 1.04199L15.0209 6.56283C13.75 7.08366 12.5834 7.79199 11.5 8.60449L6.31253 6.52116C5.83336 6.33366 5.2917 6.52116 5.0417 6.97949L0.875032 14.1878C0.604198 14.6462 0.729199 15.2087 1.12503 15.5212L5.52087 18.9587C5.43753 19.6253 5.37503 20.3128 5.37503 21.0003C5.37503 21.6878 5.43753 22.3753 5.52087 23.042L1.12503 26.4795C0.729199 26.792 0.625032 27.3545 0.875032 27.8128L5.0417 35.0212C5.2917 35.4795 5.8542 35.6462 6.31253 35.4795L11.5 33.3962C12.5834 34.2295 13.75 34.917 15.0209 35.4378L15.8125 40.9587C15.875 41.4587 16.3125 41.8337 16.8334 41.8337H25.1667C25.6875 41.8337 26.125 41.4587 26.1875 40.9587L26.9792 35.4378C28.25 34.917 29.4167 34.2087 30.5 33.3962L35.6875 35.4795C36.1667 35.667 36.7084 35.4795 36.9584 35.0212L41.125 27.8128C41.375 27.3545 41.2709 26.792 40.875 26.4795L36.4792 23.042ZM21 28.292C16.9792 28.292 13.7084 25.0212 13.7084 21.0003C13.7084 16.9795 16.9792 13.7087 21 13.7087C25.0209 13.7087 28.2917 16.9795 28.2917 21.0003C28.2917 25.0212 25.0209 28.292 21 28.292Z" fill="black" fill-opacity="0.87"/>
</svg>
