<svg width="127" height="120" viewBox="0 0 127 120" fill="none" xmlns="http://www.w3.org/2000/svg">
<path d="M73.7582 0L67.4582 6.3L76.7915 15.6333C78.0748 17.0917 78.7165 18.7833 78.7165 20.7083C78.7165 22.6333 78.0748 24.4417 76.7915 25.725L56.0832 46.7833L61.9165 53.0833L83.0915 32.025C86.1832 28.5833 87.6998 24.7917 87.6998 20.7083C87.6998 16.625 86.1832 12.775 83.0915 9.33333L73.7582 0ZM50.5415 11.7833L44.2415 18.0833L47.7998 21.35C49.0832 22.6333 49.7248 24.3833 49.7248 26.5417C49.7248 28.7 49.0832 30.45 47.7998 31.7333L44.2415 35L50.5415 41.3L53.8082 37.7417C56.8998 34.3 58.4748 30.5667 58.4748 26.5417C58.4748 22.3417 56.8998 18.55 53.8082 15.05L50.5415 11.7833ZM111.5 21.0583C107.475 21.0583 103.742 22.6333 100.3 25.725L67.4582 58.625L73.7582 64.4583L106.308 32.025C107.767 30.5667 109.517 29.8083 111.5 29.8083C113.483 29.8083 115.233 30.5667 116.692 32.025L120.25 35.5833L126.258 29.2833L122.992 25.725C119.55 22.6333 115.7 21.0583 111.5 21.0583ZM29.8332 38.2083L0.666504 119.875L82.3332 90.7083L29.8332 38.2083ZM99.8332 56.0583C95.7498 56.0583 92.0165 57.6333 88.5165 60.725L79.2415 70L85.5415 76.3L94.8165 67.025C96.2748 65.5667 97.9082 64.8083 99.8332 64.8083C101.758 64.8083 103.508 65.5667 104.967 67.025L114.417 76.3L120.542 70.2917L111.208 60.725C107.767 57.6333 103.917 56.0583 99.8332 56.0583Z" fill="black"/>
</svg>
