<svg width="50" height="36" viewBox="0 0 50 36" fill="none" xmlns="http://www.w3.org/2000/svg">
<path d="M22.9167 10.6667C22.9167 15.2708 19.1875 19 14.5833 19C9.97917 19 6.25 15.2708 6.25 10.6667C6.25 6.0625 9.97917 2.33333 14.5833 2.33333C19.1875 2.33333 22.9167 6.0625 22.9167 10.6667ZM22.9167 24.6667V35.6667H0V31.5C0 26.8958 6.52083 23.1667 14.5833 23.1667C17.7083 23.1667 20.5625 23.7292 22.9167 24.6667ZM50 35.6667H27.0833V0.25H50V35.6667ZM33.3333 17.9583C33.3333 16.577 33.8821 15.2522 34.8588 14.2755C35.8356 13.2987 37.1603 12.75 38.5417 12.75C39.923 12.75 41.2478 13.2987 42.2245 14.2755C43.2013 15.2522 43.75 16.577 43.75 17.9583C43.75 19.3397 43.2013 20.6644 42.2245 21.6412C41.2478 22.6179 39.923 23.1667 38.5417 23.1667C37.1603 23.1667 35.8356 22.6179 34.8588 21.6412C33.8821 20.6644 33.3333 19.3397 33.3333 17.9583ZM45.8333 8.58333C44.7283 8.58333 43.6685 8.14435 42.8871 7.36295C42.1057 6.58154 41.6667 5.52174 41.6667 4.41667H35.4167C35.4167 6.72917 33.5625 8.58333 31.25 8.58333V27.3333C32.3551 27.3333 33.4149 27.7723 34.1963 28.5537C34.9777 29.3351 35.4167 30.3949 35.4167 31.5H41.6667C41.6667 29.2083 43.5417 27.3333 45.8333 27.3333V8.58333Z" fill="black"/>
</svg>
