<?xml version="1.0" encoding="utf-8"?>
<!-- Generator: Adobe Illustrator 24.0.2, SVG Export Plug-In . SVG Version: 6.00 Build 0)  -->
<svg version="1.1" id="Capa_1" xmlns="http://www.w3.org/2000/svg" xmlns:xlink="http://www.w3.org/1999/xlink" x="0px" y="0px"
	 viewBox="0 0 801.04 253.19" style="enable-background:new 0 0 801.04 253.19;" xml:space="preserve">
<style type="text/css">
	.st0{fill:#DF5656;}
	.st1{fill:#EFC52F;}
	.st2{fill:#444FCC;}
	.st3{fill:#EBB3B2;}
	.st4{fill:#B6BABD;}
	.st5{fill:#0B003A;}
	.st6{fill:#FFFFFF;}
	.st7{fill:#C6A527;}
	.st8{fill:#B74A4A;}
	.st9{fill:#AB8484;}
	.st10{fill:#9392A8;}
	.st11{fill:#353D97;}
	.st12{fill:#A4A6AB;}
</style>
<rect x="-15.66" y="-14.4" class="st5" width="832.35" height="282"/>
<g>
	<g>
		<g>
			<path class="st0" d="M128.35,112.75c-15.45,0-28.03-12.57-28.03-28.03S112.9,56.7,128.35,56.7c15.45,0,28.03,12.57,28.03,28.03
				S143.81,112.75,128.35,112.75z M128.35,71.65c-7.21,0-13.08,5.87-13.08,13.08s5.87,13.08,13.08,13.08
				c7.21,0,13.08-5.87,13.08-13.08S135.56,71.65,128.35,71.65z"/>
		</g>
		<g>
			<path class="st6" d="M276.31,182.4l-16.94-29.2h-12.62v29.2h-16.58V98.28h33.65c7.81,0,14.42,2.76,19.83,8.17
				c5.41,5.41,8.17,12.02,8.17,19.71c0,10.45-6.49,20.07-16.22,24.51l18.63,31.73H276.31z M246.75,113.78v24.87h17.06
				c6.25,0,11.42-5.65,11.42-12.5s-5.17-12.38-11.42-12.38H246.75z"/>
			<path class="st6" d="M310.91,158.73c2.04,7.57,7.69,11.3,16.94,11.3c5.89,0,10.45-2.04,13.46-6.01l12.5,7.21
				c-5.89,8.53-14.66,12.86-26.2,12.86c-9.97,0-17.91-3-23.91-9.01c-6.01-6.01-9.01-13.58-9.01-22.71c0-9.01,3-16.58,8.89-22.59
				c5.89-6.13,13.58-9.13,22.83-9.13c8.77,0,16.1,3,21.75,9.13c5.77,6.13,8.65,13.58,8.65,22.59c0,2.04-0.24,4.09-0.6,6.37H310.91z
				 M341.31,146.71c-1.8-8.17-7.81-12.14-14.9-12.14c-8.29,0-13.94,4.45-15.74,12.14H341.31z"/>
			<path class="st6" d="M410.28,98.28h15.5v84.12h-15.5v-7.09c-4.57,5.89-11.06,8.77-19.47,8.77c-8.05,0-15.02-3-20.79-9.13
				c-5.65-6.13-8.53-13.7-8.53-22.59c0-8.89,2.88-16.34,8.53-22.47c5.77-6.13,12.74-9.25,20.79-9.25c8.41,0,14.9,2.88,19.47,8.77
				V98.28z M393.7,169.3c4.81,0,8.77-1.56,11.9-4.69c3.13-3.24,4.69-7.33,4.69-12.26s-1.56-9.01-4.69-12.14
				c-3.12-3.25-7.09-4.81-11.9-4.81c-4.81,0-8.77,1.56-12.02,4.81c-3.12,3.12-4.69,7.21-4.69,12.14s1.56,9.01,4.69,12.26
				C384.93,167.74,388.89,169.3,393.7,169.3z"/>
			<path class="st6" d="M496.84,182.4l-16.94-29.2h-12.62v29.2h-16.58V98.28h33.65c7.81,0,14.42,2.76,19.83,8.17
				c5.41,5.41,8.17,12.02,8.17,19.71c0,10.45-6.49,20.07-16.22,24.51l18.63,31.73H496.84z M467.28,113.78v24.87h17.06
				c6.25,0,11.42-5.65,11.42-12.5s-5.17-12.38-11.42-12.38H467.28z"/>
			<path class="st6" d="M546.94,184.08c-8.89,0-16.46-3-22.59-9.13c-6.13-6.13-9.13-13.7-9.13-22.59c0-8.89,3-16.34,9.13-22.47
				c6.13-6.13,13.7-9.25,22.59-9.25c8.89,0,16.46,3.12,22.59,9.25c6.13,6.13,9.25,13.58,9.25,22.47c0,8.89-3.12,16.46-9.25,22.59
				C563.4,181.08,555.83,184.08,546.94,184.08z M546.94,168.94c4.69,0,8.53-1.56,11.66-4.69c3.12-3.12,4.69-7.09,4.69-11.9
				c0-4.81-1.56-8.77-4.69-11.9c-3.13-3.12-6.97-4.69-11.66-4.69c-4.69,0-8.53,1.56-11.66,4.69c-3,3.12-4.57,7.09-4.57,11.9
				c0,4.81,1.56,8.77,4.57,11.9C538.41,167.38,542.26,168.94,546.94,168.94z"/>
			<path class="st6" d="M624.44,122.32h17.06l-22.83,60.08h-17.67l-22.83-60.08h17.06l14.54,42.06L624.44,122.32z"/>
			<path class="st6" d="M657.24,158.73c2.04,7.57,7.69,11.3,16.94,11.3c5.89,0,10.45-2.04,13.46-6.01l12.5,7.21
				c-5.89,8.53-14.66,12.86-26.2,12.86c-9.97,0-17.91-3-23.91-9.01c-6.01-6.01-9.01-13.58-9.01-22.71c0-9.01,3-16.58,8.89-22.59
				c5.89-6.13,13.58-9.13,22.83-9.13c8.77,0,16.1,3,21.75,9.13c5.77,6.13,8.65,13.58,8.65,22.59c0,2.04-0.24,4.09-0.6,6.37H657.24z
				 M687.65,146.71c-1.8-8.17-7.81-12.14-14.9-12.14c-8.29,0-13.94,4.45-15.74,12.14H687.65z"/>
			<path class="st6" d="M727.05,132.65c2.88-7.69,10.09-11.54,18.27-11.54v17.3c-4.69-0.6-9.01,0.36-12.74,2.88
				c-3.73,2.52-5.53,6.61-5.53,12.38v28.72h-15.5v-60.08h15.5V132.65z"/>
		</g>
		<g>
			<path class="st8" d="M91.92,156.96l8.89-8.89c0.58-0.58,1.18-1.14,1.79-1.66l7.29,7.29c0.22,0.22,0.43,0.45,0.65,0.67l-0.67,0.58
				c-0.39,0.34-0.77,0.69-1.12,1.05l-8.89,8.89c-0.15-0.21-0.34-0.41-0.54-0.62l-7.31-7.31"/>
		</g>
		<g>
			<path class="st8" d="M162.92,156.96l8.89-8.89c0.58-0.58,1.18-1.14,1.79-1.66l7.29,7.29c0.22,0.22,0.43,0.45,0.65,0.67
				l-0.69,0.58c-0.37,0.34-0.75,0.69-1.12,1.05l-8.87,8.87c-0.17-0.21-0.35-0.41-0.54-0.6l-7.31-7.31"/>
		</g>
	</g>
	<path class="st0" d="M171.81,148.06l-8.89,8.89h0.09l-7.31,7.3c-0.22,0.22-0.45,0.47-0.64,0.71c-3.36,4.03-3.16,10.09,0.64,13.9
		c1.94,1.92,4.54,3.01,7.31,3.01s5.36-1.08,7.32-3.03c1.92-1.94,3.01-4.54,3.01-7.31c0-2.47-0.88-4.82-2.49-6.69l8.87-8.87
		c0.37-0.35,0.75-0.71,1.12-1.05l0.69-0.58c4.35,4.67,6.74,10.76,6.74,17.19c0,6.76-2.63,13.12-7.4,17.88
		c-4.8,4.78-11.14,7.4-17.88,7.4c-6.74,0-13.1-2.62-17.86-7.38c-9.6-9.62-9.86-25.07-0.77-34.97c0.24-0.26,0.49-0.52,0.75-0.78
		l7.19-7.19c-2.9-2.58-6.15-4.67-9.62-6.22c-4.75-2.11-9.92-3.23-15.28-3.23c-5.31,0-10.44,1.08-15.15,3.18
		c-3.49,1.53-6.73,3.61-9.66,6.18c-0.62,0.52-1.21,1.08-1.79,1.66l-8.89,8.89h0.09l-7.31,7.3c-0.22,0.22-0.45,0.47-0.64,0.71
		c-3.36,4.03-3.16,10.09,0.64,13.9c1.94,1.92,4.54,3.01,7.31,3.01s5.36-1.08,7.32-3.03c1.92-1.94,3.01-4.54,3.01-7.31
		c0-2.47-0.88-4.8-2.49-6.67l8.89-8.89c0.35-0.35,0.73-0.71,1.12-1.05l0.67-0.58c4.35,4.67,6.74,10.76,6.74,17.19
		c0,6.76-2.63,13.12-7.4,17.88c-4.8,4.78-11.14,7.4-17.88,7.4c-6.74,0-13.08-2.62-17.86-7.38c-9.6-9.62-9.86-25.09-0.77-34.99
		c0.24-0.26,0.5-0.52,0.75-0.77l7.19-7.19c-2.91-2.6-6.15-4.67-9.64-6.22c-4.75-2.11-9.92-3.23-15.26-3.23v-14.95
		c9.42,0,18.44,2.45,26.36,7.08c3.25,1.87,6.32,4.13,9.14,6.71c0.04-0.04,0.06-0.06,0.09-0.07c2.82-2.6,5.89-4.84,9.15-6.71
		c7.88-4.58,16.89-7.01,26.25-7.01c9.42,0,18.44,2.45,26.36,7.08c3.25,1.87,6.32,4.13,9.14,6.71c0.04-0.04,0.06-0.06,0.09-0.07
		c2.82-2.6,5.89-4.84,9.15-6.71c7.88-4.58,16.89-7.01,26.25-7.01v14.95c-5.31,0-10.43,1.08-15.13,3.18
		c-3.49,1.53-6.74,3.61-9.68,6.18C172.99,146.92,172.39,147.48,171.81,148.06z"/>
</g>
</svg>
