<svg width="50" height="40" viewBox="0 0 50 40" fill="none" xmlns="http://www.w3.org/2000/svg">
<path d="M17.5 20C23.0234 20 27.5 15.5234 27.5 10C27.5 4.47656 23.0234 0 17.5 0C11.9766 0 7.5 4.47656 7.5 10C7.5 15.5234 11.9766 20 17.5 20ZM24.5 22.5H23.1953C21.4609 23.2969 19.5312 23.75 17.5 23.75C15.4688 23.75 13.5469 23.2969 11.8047 22.5H10.5C4.70312 22.5 0 27.2031 0 33V36.25C0 38.3203 1.67969 40 3.75 40H31.25C33.3203 40 35 38.3203 35 36.25V33C35 27.2031 30.2969 22.5 24.5 22.5ZM49.7344 12.4688L47.5625 10.2734C47.2031 9.90625 46.6172 9.90625 46.25 10.2656L38.0625 18.3906L34.5078 14.8125C34.1484 14.4453 33.5625 14.4453 33.1953 14.8047L31 16.9844C30.6328 17.3438 30.6328 17.9297 30.9922 18.2969L37.375 24.7266C37.7344 25.0938 38.3203 25.0938 38.6875 24.7344L49.7266 13.7812C50.0859 13.4141 50.0937 12.8281 49.7344 12.4688Z" fill="black"/>
</svg>
