<svg width="11" height="11" viewBox="0 0 11 11" fill="none" xmlns="http://www.w3.org/2000/svg">
<path d="M9.35323 8.41372L9.70678 8.06016L9.35323 7.70661L7.31345 5.66683L9.35323 3.62705L9.70678 3.2735L9.35323 2.91994L8.41323 1.97994L8.05967 1.62639L7.70612 1.97994L5.66634 4.01972L3.62656 1.97994L3.27301 1.62639L2.91945 1.97994L1.97945 2.91994L1.6259 3.2735L1.97945 3.62705L4.01923 5.66683L1.97945 7.70661L1.6259 8.06016L1.97945 8.41372L2.91945 9.35372L3.27301 9.70727L3.62656 9.35372L5.66634 7.31394L7.70612 9.35372L8.05967 9.70727L8.41323 9.35372L9.35323 8.41372Z" fill="#E5E5E5" stroke="#E5E5E5"/>
</svg>