<svg width="42" height="32" viewBox="0 0 42 32" fill="none" xmlns="http://www.w3.org/2000/svg">
<path d="M33.5 0.333008L25.1666 8.66634H31.4166V23.2497C31.4166 25.5413 29.5416 27.4163 27.25 27.4163C24.9583 27.4163 23.0833 25.5413 23.0833 23.2497V8.66634C23.0833 4.06217 19.3541 0.333008 14.75 0.333008C10.1458 0.333008 6.41663 4.06217 6.41663 8.66634V23.2497H0.166626L8.49996 31.583L16.8333 23.2497H10.5833V8.66634C10.5833 6.37467 12.4583 4.49967 14.75 4.49967C17.0416 4.49967 18.9166 6.37467 18.9166 8.66634V23.2497C18.9166 27.8538 22.6458 31.583 27.25 31.583C31.8541 31.583 35.5833 27.8538 35.5833 23.2497V8.66634H41.8333L33.5 0.333008Z" fill="black"/>
</svg>
