<svg width="40" height="40" viewBox="0 0 40 40" fill="none" xmlns="http://www.w3.org/2000/svg">
<path d="M28 16V12H22V6H18V12H12V16H18V22H22V16H28ZM30 0C31.0609 0 32.0783 0.421427 32.8284 1.17157C33.5786 1.92172 34 2.93913 34 4V24C34 25.0609 33.5786 26.0783 32.8284 26.8284C32.0783 27.5786 31.0609 28 30 28H22V32H24C24.5304 32 25.0391 32.2107 25.4142 32.5858C25.7893 32.9609 26 33.4696 26 34H40V38H26C26 38.5304 25.7893 39.0391 25.4142 39.4142C25.0391 39.7893 24.5304 40 24 40H16C15.4696 40 14.9609 39.7893 14.5858 39.4142C14.2107 39.0391 14 38.5304 14 38H0V34H14C14 33.4696 14.2107 32.9609 14.5858 32.5858C14.9609 32.2107 15.4696 32 16 32H18V28H10C8.93913 28 7.92172 27.5786 7.17157 26.8284C6.42143 26.0783 6 25.0609 6 24V4C6 2.93913 6.42143 1.92172 7.17157 1.17157C7.92172 0.421427 8.93913 0 10 0H30Z" fill="black"/>
</svg>
