<svg width="44" height="44" viewBox="0 0 44 44" fill="none" xmlns="http://www.w3.org/2000/svg">
<path d="M43.75 30.9947V4.8125C43.75 2.22363 41.6514 0.125 39.0625 0.125H4.6875C2.09863 0.125 0 2.22363 0 4.8125V39.1863C0 41.7752 2.09863 43.8738 4.6875 43.8738H30.8709C32.1141 43.8738 33.3064 43.38 34.1854 42.5009L42.3771 34.3093C43.2561 33.4302 43.75 32.2379 43.75 30.9947ZM31.25 38.8072V31.3738H38.6834L31.25 38.8072ZM39.0625 4.8125V26.6863H28.9062C27.6118 26.6863 26.5625 27.7356 26.5625 29.0301V39.1863H4.6875V4.8125H39.0625Z" fill="black"/>
</svg>
