<svg width="36" height="27" viewBox="0 0 36 27" fill="none" xmlns="http://www.w3.org/2000/svg">
<path d="M12 10C14.76 10 17 12.24 17 15C17 15.65 16.87 16.26 16.64 16.83L19.56 19.75C21.07 18.49 22.26 16.86 22.99 15C21.26 10.61 16.99 7.5 11.99 7.5C10.59 7.5 9.25 7.75 8.01 8.2L10.17 10.36C10.74 10.13 11.35 10 12 10ZM2 7.27L4.28 9.55L4.74 10.01C3.08 11.3 1.78 13.02 1 15C2.73 19.39 7 22.5 12 22.5C13.55 22.5 15.03 22.2 16.38 21.66L16.8 22.08L19.73 25L21 23.73L3.27 6L2 7.27ZM7.53 12.8L9.08 14.35C9.03 14.56 9 14.78 9 15C9 16.66 10.34 18 12 18C12.22 18 12.44 17.97 12.65 17.92L14.2 19.47C13.53 19.8 12.79 20 12 20C9.24 20 7 17.76 7 15C7 14.21 7.2 13.47 7.53 12.8ZM11.84 12.02L14.99 15.17L15.01 15.01C15.01 13.35 13.67 12.01 12.01 12.01L11.84 12.02Z" fill="#9E9E9E"/>
<path d="M34.6666 3.81357L31.5999 1.24023L30.7399 2.26023L33.8066 4.83357L34.6666 3.81357ZM25.2533 2.26023L24.3999 1.24023L21.3333 3.8069L22.1933 4.8269L25.2533 2.26023ZM28.3333 5.33357H27.3333V9.33357L30.4999 11.2336L30.9999 10.4136L28.3333 8.83357V5.33357ZM27.9999 2.6669C24.6866 2.6669 21.9999 5.35357 21.9999 8.6669C21.9999 11.9802 24.6799 14.6669 27.9999 14.6669C31.3133 14.6669 33.9999 11.9802 33.9999 8.6669C33.9999 5.35357 31.3133 2.6669 27.9999 2.6669ZM27.9999 13.3336C25.4199 13.3336 23.3333 11.2469 23.3333 8.6669C23.3333 6.0869 25.4199 4.00023 27.9999 4.00023C30.5799 4.00023 32.6666 6.0869 32.6666 8.6669C32.6666 11.2469 30.5799 13.3336 27.9999 13.3336Z" fill="#9E9E9E"/>
</svg>
